<svg id="Capa_1" enable-background="new 0 0 510.985 510.985" height="512" viewBox="0 0 510.985 510.985" width="512" xmlns="http://www.w3.org/2000/svg"><path d="m495.829 361.046-149.827-76.549c-7.339-4.253-23.258-18.279-31.805-41.504-8.021-21.796-26.647-35.668-50.648-38.192 1.812-11.844 8.095-22.591 17.597-29.63 11.466-8.494 17.988-22.083 17.447-36.35-.85-22.381-19.047-40.577-41.427-41.427-11.86-.481-23.063 3.82-31.584 12.024-8.525 8.208-13.221 19.243-13.221 31.075 0 4.143 3.358 7.5 7.5 7.5s7.5-3.357 7.5-7.5c0-7.717 3.063-14.915 8.624-20.269 5.558-5.35 12.883-8.127 20.611-7.842 14.59.555 26.454 12.417 27.007 27.007.354 9.314-3.903 18.185-11.386 23.729-13.273 9.833-21.866 25.019-23.806 41.589-24.471 2.247-43.494 16.196-51.623 38.286-8.546 23.225-24.465 37.251-31.804 41.504l-80.3 41.026c-3.689 1.885-5.151 6.402-3.267 10.091 1.883 3.69 6.403 5.151 10.091 3.267l80.405-41.081c.253-.127 25.938-14.265 38.952-49.627 6.734-18.298 23-28.793 44.627-28.793s37.893 10.495 44.627 28.793c12.92 35.109 38.458 49.363 38.714 49.503.059.032.119.065.179.095l149.991 76.633c6.292 3.215 8.796 10.949 5.581 17.242-3.214 6.293-10.947 8.797-17.242 5.581l-107.646-54.998c-3.689-1.886-8.206-.423-10.091 3.267-1.885 3.688-.422 8.206 3.267 10.091l60.056 30.684h-334.872l113.651-58.066c33.68-17.207 73.895-17.207 107.572 0l26.863 13.725c3.689 1.887 8.207.423 10.091-3.267 1.885-3.689.422-8.206-3.267-10.091l-26.862-13.725c-37.951-19.39-83.268-19.391-121.221 0l-161.24 82.381c-6.293 3.213-14.028.711-17.242-5.581-3.215-6.293-.711-14.027 5.581-17.242l42.727-21.83c3.689-1.885 5.151-6.402 3.267-10.091-1.885-3.689-6.403-5.152-10.091-3.267l-42.728 21.83c-13.658 6.977-19.092 23.766-12.114 37.423 3.38 6.616 9.134 11.521 16.203 13.809 6.993 2.262 14.676 1.649 21.221-1.694l18.231-9.314h393.591l18.231 9.314c4.042 2.065 8.355 3.043 12.609 3.043 10.123 0 19.901-5.541 24.815-15.157 6.977-13.658 1.542-30.447-12.115-37.425z"/></svg>